<?xml version="1.0" encoding="UTF-8"?>
<svg id="Layer_1" data-name="Layer 1" xmlns="http://www.w3.org/2000/svg" viewBox="0 0 761.07 758.59">
  <defs>
    <style>
      .cls-1 {
        fill: #1a6bb2;
      }

      .cls-2 {
        fill: #255079;
      }

      .cls-3 {
        fill: #6dbd48;
      }

      .cls-4 {
        fill: #39a2d7;
      }
    </style>
  </defs>
  <path class="cls-4" d="M494.93,274c-13.58-17.76-30.44-33.22-50.13-45.56-.2-.1-.35-.2-.55-.3l-173.52-103.45-1.54-.9-23.47-13.98c-.25-.15-.5-.3-.75-.4-5.22-2.88-10.25-5.37-15.12-7.41-1.09-.45-2.14-.9-3.13-1.29-.85-.3-1.69-.65-2.54-.94-2.88-1.09-5.72-2.04-8.45-2.83-33.82-10.2-57.79-1.54-70.37,5.77-26.86,15.62-42.92,46.4-42.92,82.46v248.07c0,26.66,5.37,52.57,15.27,76.54,13.48-24.67,28.2-44.02,41.63-51.92-1.39-8.06-2.09-16.31-2.09-24.62V185.17c0-16.11,6.22-30.09,15.82-35.66,12.28-7.06,29.99-.55,41.43,5.27,.55,.25,1.05,.55,1.54,.8,.6,.3,1.19,.65,1.79,.94l51.37,30.64,1.54,.9,144.98,86.39c17.95,11.29,32.67,26.31,43.32,43.72,12.78,20.84,19.79,45.11,19.79,70.57v24.82l4.77-7.31c14.47-22.13,29.24-44.76,44.31-63.96-6.22-24.87-17.46-48.04-32.97-68.29Z"/>
  <path class="cls-4" d="M613.54,214.41c-14.52-21.93-33.57-40.93-56.45-55.55-.15-.1-.35-.25-.55-.35L358.86,38.25c-.25-.15-.5-.3-.75-.45-49.04-27.8-83.11-16.36-99.02-7.06-11.19,6.52-20.59,15.96-27.7,27.45l47.4,27.35c2.24-3.23,4.88-5.82,7.86-7.56,3.73-2.14,7.96-3.03,12.38-3.03,11.39,0,23.92,5.82,31.78,10.25l197.05,119.91c10.84,6.96,20.44,15.27,28.7,24.67,15.62,17.71,26.36,39.19,31.23,62.57,18.1-7.36,36.9-9.85,53.81-9.95-4.92-24.47-14.47-47.55-28.05-67.99ZM344.28,496.66c-9.75-5.72-18.7-12.48-26.71-20.09-29.49-28.05-46.85-67.74-46.85-109.71V124.39l-23.47-13.98c-.25-.15-.5-.3-.75-.4-5.77-3.18-11.34-5.87-16.66-8.01-1.09-.45-2.14-.9-3.13-1.29-.85-.3-1.69-.65-2.54-.94-2.34-.85-4.67-1.59-6.91-2.24-.85,5.52-1.24,11.19-1.24,17.01v252.3c0,10.1,.75,20.09,2.24,29.89,8.9,61.07,44.91,115.68,98.32,147.06l4.13,2.44c25.36-.35,47.55-9.3,67.54-23.77l-43.97-25.81Z"/>
  <path class="cls-1" d="M529.49,342.28c-6.27-24.82-17.46-47.99-33.02-68.24-12.73,13.23-24.57,28.3-35.91,44.11,12.78,20.84,19.79,45.11,19.79,70.57v276.72c0,11.49-7.71,17.11-10.99,19-3.23,1.84-11.84,5.52-21.48-.05l-215.3-123.74c-38.3-21.98-64.36-60.08-71.72-102.8-1.39-8.06-2.09-16.31-2.09-24.62v-47.7c-20.59,3.43-38.84,14.07-54.81,28.85v18.85c0,26.61,5.32,52.57,15.27,76.49,16.76,40.53,46.6,75.3,85.79,97.83l215.3,123.74c11.99,6.91,25.17,10.34,38.3,10.34s26.16-3.38,38.05-10.2c22.43-12.73,36.46-34.96,38.35-60.18v-.2c.15-1.89,.2-3.73,.2-5.62V388.73c0-15.92-1.94-31.48-5.72-46.45Z"/>
  <path class="cls-1" d="M643.2,284.3c-4.92-24.47-14.47-47.5-28.05-67.99-18.45,2.24-37.85,6.91-56.95,15.37,15.52,17.66,26.26,39.19,31.18,62.57,1.99,9.45,3.03,19.25,3.03,29.19v281.4c0,11.94-7.86,17.76-11.19,19.64-1.94,1.09-5.72,2.83-10.49,2.83h-.1v54.76h.2c12.88,0,25.76-3.33,37.55-10.1,24.27-13.88,38.74-38.99,38.74-67.14V323.44c0-13.33-1.34-26.46-3.93-39.14Zm-161.24,294.13l-1.54-.9-90.57-53.17-43.96-25.81c-9.7-5.72-18.65-12.48-26.66-20.09-19.64-.7-32.18-13.93-52.22-36.9-12.88-14.77-27.65-31.68-47.15-42.92,8.9,61.07,44.91,115.68,98.32,147.06l4.13,2.44,158.11,92.8,1.54,.9,50.58,29.69c.85,.5,1.69,.99,2.54,1.44,.15-1.89,.2-3.73,.2-5.62v-57.59l-53.32-31.33Z"/>
  <g>
    <path class="cls-2" d="M161.18,458.52c1.49,8.8,3.83,17.41,6.86,25.71-.95,.45-1.89,.94-2.84,1.49-11.84,6.96-24.67,22.78-36.75,43.32-3.33-6.07-6.27-12.28-8.9-18.65-8.46-20.34-13.58-42.17-14.92-64.6,1.19-1.24,2.44-2.39,3.68-3.53,14.92-13.78,31.83-23.97,50.78-28.1v19.74c0,8.31,.7,16.56,2.09,24.62Z"/>
    <path class="cls-2" d="M389.38,524.02l21.59,12.68c-5.67,5.32-11.49,10.15-17.56,14.52-10.89,7.86-22.38,14.12-34.76,18.15l-36.8-21.58-4.13-2.44c-44.91-26.41-77.54-69.23-92.06-118.52,18.4,11.19,32.53,27.35,44.91,41.58,20.04,22.98,32.58,36.21,52.22,36.9,.55,.05,1.09,.05,1.64,.05,7.31,0,14.62-2.39,21.98-6.61l42.97,25.27Z"/>
    <path class="cls-2" d="M529.59,344.42c2.19,8.6,3.73,17.46,4.67,26.41-.2,.25-.45,.55-.65,.8-15.12,19.15-29.89,41.78-44.36,63.96-1.59,2.44-3.18,4.87-4.77,7.31-1.34,2.04-2.69,4.08-4.03,6.12v-58.14c0-17.95-3.48-35.26-10.05-51.23,9.6-12.93,19.6-25.22,30.19-36.26,2.79-2.98,5.67-5.82,8.55-8.6,9.15,15.42,16.01,32.13,20.44,49.64Z"/>
    <path class="cls-2" d="M646.82,311.75c-16.81,.15-35.41,2.64-53.36,9.95-.35,.15-.7,.3-1.04,.45-.05-9.4-1.09-18.7-2.98-27.65-2.98-14.22-8.16-27.75-15.22-40.14,15.17-5.52,30.39-8.8,45.01-10.59,3.53-.45,7.01-.75,10.49-.99,6.07,13.23,10.59,27.25,13.53,41.78,1.79,8.9,3.03,17.95,3.58,27.2Z"/>
  </g>
  <path class="cls-3" d="M744.18,271.59c-6.52,18.1-26.46,27.45-44.51,20.94-.4-.15-25.96-8.85-58.49-8.7-16.91,.1-35.71,2.59-53.81,9.95-11.04,4.48-21.83,10.79-31.78,19.45-9.5,8.26-18.85,18.75-28.1,30.49-15.07,19.2-29.84,41.83-44.31,63.96l-4.77,7.31c-27.4,41.93-55.75,83.8-90.57,108.92-19.99,14.47-42.17,23.42-67.54,23.77h-1.44c-53.27,0-83.95-35.16-106.33-60.82-19.1-21.88-28.75-31.48-41.13-31.48-3.98,0-8.16,1.39-12.48,3.93-13.43,7.91-28.15,27.25-41.63,51.92-14.97,27.4-28.5,61.42-37.2,93.75-4.18,15.52-18.25,25.81-33.62,25.81-2.93,0-5.97-.4-9-1.19-18.55-4.97-29.59-24.07-24.62-42.62,6.57-24.67,35.06-121.3,89.17-171.09,16.02-14.82,34.22-25.46,54.81-28.9,4.73-.85,9.6-1.24,14.57-1.24,18.15,0,33.37,4.92,46.45,12.43,19.5,11.24,34.27,28.15,47.15,42.92,19.99,22.93,32.58,36.21,52.17,36.9,.55,.05,1.09,.05,1.69,.05,35.26,0,71.22-55.11,106.03-108.42,10.94-16.81,22.08-33.87,33.72-50.03,11.34-15.87,23.23-30.93,35.91-44.16,4.92-5.17,10.05-10.1,15.27-14.67,14.82-12.93,30.49-22.53,46.35-29.54,19.15-8.45,38.54-13.13,57-15.37,57.99-7.06,106.93,10.05,110.11,11.19,18.05,6.52,27.45,26.46,20.94,44.56Z"/>
</svg>