<?xml version="1.0" encoding="UTF-8"?>
<svg id="Layer_1" data-name="Layer 1" xmlns="http://www.w3.org/2000/svg" viewBox="0 0 1917.01 508.24">
  <defs>
    <style>
      .cls-1 {
        fill: #1a6bb2;
      }

      .cls-2 {
        fill: #255079;
      }

      .cls-3 {
        fill: #6dbd48;
      }

      .cls-4 {
        fill: #39a2d7;
      }
    </style>
  </defs>
  <g>
    <path class="cls-4" d="M317.39,180.8c-8.59-11.23-19.26-21.02-31.72-28.82-.13-.06-.22-.13-.35-.19l-109.78-65.44-.98-.57-14.85-8.84c-.16-.09-.31-.19-.47-.25-3.3-1.82-6.48-3.4-9.57-4.69-.69-.28-1.35-.57-1.98-.82-.54-.19-1.07-.41-1.61-.6-1.82-.69-3.62-1.29-5.35-1.79-21.4-6.45-36.56-.98-44.52,3.65-16.99,9.88-27.15,29.36-27.15,52.17v156.94c0,16.86,3.4,33.26,9.66,48.42,8.53-15.61,17.84-27.85,26.34-32.85-.88-5.1-1.32-10.32-1.32-15.57V124.61c0-10.19,3.93-19.04,10.01-22.56,7.77-4.47,18.97-.35,26.21,3.34,.35,.16,.66,.35,.98,.5,.38,.19,.76,.41,1.13,.6l32.5,19.38,.98,.57,91.72,54.65c11.36,7.14,20.67,16.64,27.4,27.66,8.09,13.18,12.52,28.54,12.52,44.65v15.7l3.02-4.63c9.16-14,18.5-28.32,28.03-40.46-3.93-15.73-11.04-30.39-20.86-43.2Z"/>
    <path class="cls-4" d="M392.43,143.11c-9.19-13.88-21.24-25.89-35.71-35.14-.09-.06-.22-.16-.35-.22L231.3,31.66c-.16-.09-.31-.19-.47-.28-31.02-17.59-52.58-10.35-62.64-4.47-7.08,4.12-13.03,10.1-17.52,17.37l29.98,17.31c1.42-2.05,3.08-3.68,4.97-4.78,2.36-1.35,5.03-1.92,7.83-1.92,7.21,0,15.13,3.68,20.11,6.48l124.66,75.86c6.86,4.4,12.93,9.66,18.15,15.61,9.88,11.2,16.68,24.79,19.76,39.58,11.45-4.66,23.35-6.23,34.04-6.29-3.11-15.48-9.16-30.08-17.75-43.01Zm-170.34,178.56c-6.17-3.62-11.83-7.9-16.9-12.71-18.66-17.75-29.64-42.85-29.64-69.41V86.16l-14.85-8.84c-.16-.09-.31-.19-.47-.25-3.65-2.01-7.17-3.71-10.54-5.07-.69-.28-1.35-.57-1.98-.82-.54-.19-1.07-.41-1.61-.6-1.48-.53-2.96-1.01-4.37-1.42-.53,3.49-.79,7.08-.79,10.76V239.54c0,6.39,.47,12.71,1.42,18.91,5.63,38.64,28.41,73.18,62.2,93.04l2.61,1.54c16.05-.22,30.08-5.88,42.73-15.04l-27.81-16.33Z"/>
    <path class="cls-1" d="M339.25,224c-3.96-15.7-11.04-30.36-20.89-43.17-8.05,8.37-15.54,17.9-22.72,27.91,8.09,13.18,12.52,28.54,12.52,44.65v175.06c0,7.27-4.88,10.82-6.95,12.02-2.05,1.16-7.49,3.49-13.59-.03l-136.21-78.28c-24.23-13.91-40.71-38.01-45.37-65.04-.88-5.1-1.32-10.32-1.32-15.57v-30.17c-13.03,2.17-24.57,8.9-34.67,18.25v11.92c0,16.83,3.37,33.26,9.66,48.39,10.6,25.64,29.48,47.64,54.27,61.89l136.21,78.28c7.58,4.37,15.92,6.54,24.23,6.54s16.55-2.14,24.07-6.45c14.19-8.05,23.06-22.12,24.26-38.07v-.13c.09-1.2,.13-2.36,.13-3.56V253.39c0-10.07-1.23-19.92-3.62-29.39Z"/>
    <path class="cls-1" d="M411.19,187.32c-3.11-15.48-9.16-30.05-17.75-43.01-11.67,1.42-23.94,4.37-36.03,9.72,9.82,11.17,16.61,24.79,19.73,39.58,1.26,5.98,1.92,12.18,1.92,18.47v178.02c0,7.55-4.97,11.23-7.08,12.43-1.23,.69-3.62,1.79-6.64,1.79h-.06v34.64h.13c8.15,0,16.3-2.11,23.76-6.39,15.35-8.78,24.51-24.67,24.51-42.48V212.08c0-8.43-.85-16.74-2.49-24.76Zm-102.01,186.08l-.98-.57-57.3-33.63-27.81-16.33c-6.14-3.62-11.8-7.9-16.86-12.71-12.43-.44-20.36-8.81-33.04-23.35-8.15-9.34-17.49-20.04-29.83-27.15,5.63,38.64,28.41,73.18,62.2,93.04l2.61,1.54,100.02,58.71,.98,.57,32,18.78c.53,.31,1.07,.63,1.6,.91,.09-1.2,.13-2.36,.13-3.56v-36.43l-33.73-19.82Z"/>
    <g>
      <path class="cls-2" d="M106.25,297.54c.94,5.57,2.42,11.01,4.34,16.27-.6,.28-1.2,.6-1.79,.94-7.49,4.4-15.61,14.41-23.25,27.4-2.11-3.84-3.96-7.77-5.63-11.8-5.35-12.87-8.59-26.68-9.44-40.87,.76-.79,1.54-1.51,2.33-2.23,9.44-8.72,20.14-15.17,32.12-17.78v12.49c0,5.25,.44,10.48,1.32,15.57Z"/>
      <path class="cls-2" d="M250.61,338.98l13.66,8.02c-3.59,3.37-7.27,6.42-11.11,9.19-6.89,4.97-14.16,8.94-21.99,11.48l-23.28-13.66-2.61-1.54c-28.41-16.71-49.05-43.8-58.24-74.98,11.64,7.08,20.58,17.31,28.41,26.3,12.68,14.54,20.61,22.91,33.04,23.35,.35,.03,.69,.03,1.04,.03,4.63,0,9.25-1.51,13.91-4.18l27.18,15.98Z"/>
      <path class="cls-2" d="M339.32,225.36c1.38,5.44,2.36,11.04,2.96,16.71-.13,.16-.28,.35-.41,.5-9.56,12.11-18.91,26.43-28.07,40.46-1.01,1.54-2.01,3.08-3.02,4.63-.85,1.29-1.7,2.58-2.55,3.87v-36.78c0-11.36-2.2-22.31-6.36-32.41,6.07-8.18,12.4-15.95,19.1-22.94,1.76-1.89,3.59-3.68,5.41-5.44,5.79,9.75,10.13,20.33,12.93,31.4Z"/>
      <path class="cls-2" d="M413.48,204.68c-10.63,.09-22.4,1.67-33.76,6.29-.22,.09-.44,.19-.66,.28-.03-5.95-.69-11.83-1.89-17.49-1.89-9-5.16-17.56-9.63-25.39,9.6-3.49,19.22-5.57,28.47-6.7,2.23-.28,4.44-.47,6.64-.63,3.84,8.37,6.7,17.24,8.56,26.43,1.13,5.63,1.92,11.36,2.27,17.21Z"/>
    </g>
    <path class="cls-3" d="M475.07,179.28c-4.12,11.45-16.74,17.37-28.16,13.25-.25-.09-16.42-5.6-37-5.51-10.7,.06-22.59,1.64-34.04,6.29-6.98,2.83-13.81,6.83-20.1,12.3-6.01,5.22-11.92,11.86-17.78,19.29-9.53,12.14-18.88,26.46-28.03,40.46l-3.02,4.63c-17.34,26.52-35.27,53.02-57.3,68.91-12.65,9.16-26.68,14.82-42.73,15.04h-.91c-33.7,0-53.11-22.24-67.27-38.48-12.08-13.84-18.19-19.92-26.02-19.92-2.52,0-5.16,.88-7.9,2.49-8.5,5-17.81,17.24-26.34,32.85-9.47,17.34-18.03,38.86-23.53,59.31-2.64,9.82-11.55,16.33-21.27,16.33-1.86,0-3.78-.25-5.7-.76-11.74-3.15-18.72-15.23-15.57-26.96,4.15-15.61,22.18-76.74,56.41-108.24,10.13-9.38,21.65-16.11,34.67-18.28,2.99-.53,6.07-.79,9.22-.79,11.48,0,21.11,3.12,29.39,7.87,12.33,7.11,21.68,17.81,29.83,27.15,12.65,14.5,20.61,22.91,33.01,23.35,.35,.03,.69,.03,1.07,.03,22.31,0,45.06-34.86,67.08-68.59,6.92-10.63,13.97-21.43,21.33-31.65,7.17-10.04,14.69-19.57,22.72-27.94,3.11-3.27,6.36-6.39,9.66-9.28,9.38-8.18,19.29-14.25,29.32-18.69,12.11-5.35,24.38-8.31,36.06-9.72,36.69-4.47,67.65,6.36,69.66,7.08,11.42,4.12,17.37,16.74,13.25,28.19Z"/>
  </g>
  <path class="cls-3" d="M735.13,331.17c.05,1.04,.07,2.1-.02,3.13-.31,3.38-.76,3.93-4.15,3.94-13.07,.07-26.14,.07-39.21,0-3.46-.02-3.79-.52-3.95-4.03-.03-.6-.03-1.2,0-1.8,.16-3.52,.47-3.89,3.94-4.03,2.43-.1,4.87-.03,7.29-.04q6.17-.02,6.19-6.29c0-22.72,0-45.44,0-68.15,0-14.64,0-29.29,0-43.94v-5.48c-2.2,1.1-2.39,2.54-2.91,3.72-17.95,40.72-35.88,81.45-53.81,122.17-.48,1.1-1,2.18-1.5,3.27-2.2,4.78-2.34,4.74-7.5,4.68-2.54-.03-3.85-1.1-4.8-3.27-3.06-7-6.25-13.95-9.37-20.92-14.21-31.73-28.41-63.46-42.61-95.18-1.72-3.83-3.41-7.66-5.14-11.49-.41-.92-.57-2.04-1.77-2.56-1.17,.89-.71,2.18-.71,3.26-.03,38.11-.03,76.22-.01,114.33,0,5.82,.05,5.82,6.2,5.84,2.74,.01,5.47-.07,8.2,.05,2.92,.12,3.28,.57,3.5,3.51,.04,.6,.03,1.19,.03,1.8-.06,4.19-.36,4.55-4.76,4.57-12.62,.05-25.23,.04-37.85,0-1.58,0-3.73,.52-4.16-1.7-.48-2.46-.91-5.08,.61-7.38,.64-.96,1.91-.79,2.96-.8,3.19-.04,6.39,.04,9.58-.07,3.23-.11,3.54-.49,3.74-3.73,.06-.89,.03-1.79,.03-2.69,0-42.15,0-84.29,0-126.43q0-6.86-7.01-6.87c-2.43-.01-4.87-.04-7.29-.05-1.87-.02-2.77-.99-2.84-2.77-.04-.9-.08-1.79-.06-2.69,.08-4.23,.35-4.53,4.75-4.55,7.91-.04,15.81,.1,23.71-.07,3.06-.07,4.61,1.08,5.82,3.8,11.21,25.19,22.56,50.32,33.87,75.46,8.54,19,17.07,38,25.62,56.99,.3,.68,.6,1.38,1.39,1.74,1.37-.08,1.52-1.28,1.92-2.17,19.11-43.31,38.2-86.64,57.3-129.96,.48-1.1,.99-2.18,1.46-3.28,.72-1.72,1.99-2.51,3.89-2.5,8.82,.03,17.63,.03,26.45,0,2.1,0,3.08,.98,3.05,3-.01,1.04-.02,2.1-.14,3.13-.41,3.43-.74,3.78-4.22,3.89-3.19,.1-6.39-.05-9.58,.08-3.16,.13-3.55,.61-3.74,3.79-.06,1.04-.03,2.1-.03,3.14,0,42,0,83.99,0,125.99q0,6.79,7.04,6.8c2.58,0,5.17,.04,7.75,.06,1.86,.02,2.79,.98,2.88,2.76Z"/>
  <path class="cls-3" d="M855.96,279.46c0-2.84,.1-5.69-.02-8.52-.35-7.66-1.76-15.13-4.42-22.36-5.78-15.76-16.81-25.69-33.66-28.9-10.58-2.02-21.14-1.82-31.59,1.09-9.92,2.76-17.73,8.33-23.57,16.64-3.96,5.62-6.36,11.9-7.93,18.48-3,12.66-3.25,25.46-1.67,38.32,.73,5.96,2.09,11.78,4.26,17.39,5.74,14.82,16.4,24.17,32.22,27.56,7.62,1.63,15.3,1.81,23.11,1.04,19.66-1.93,33.96-13.32,39.71-31.96,2.9-9.4,3.95-19,3.57-28.78Zm-15.83,25.9c-3.95,11.99-11.39,20.75-24.25,23.89-8.69,2.12-17.49,2.03-26.04-.89-10.73-3.65-17.16-11.48-20.76-21.71-3.73-10.59-4.63-21.57-3.96-32.69,.52-8.53,1.78-16.91,5.4-24.82,5.05-11.04,13.49-17.83,25.69-19.82,6.65-1.08,13.35-.98,19.89,.72,11.46,2.99,18.82,10.47,23.06,21.12,3.65,9.18,4.34,18.86,4.82,28.57-.38,8.68-1.11,17.31-3.85,25.62Z"/>
  <path class="cls-3" d="M1002.82,332.72c.15,5.24-.14,5.56-5.54,5.56-11.86,.02-23.71,.03-35.56-.04-1.71,0-3.97,.73-4.79-1.5-.85-2.27-.78-4.73,.04-7.04,.49-1.38,1.91-1.31,3.11-1.33,3.04-.05,6.08,.01,9.11-.06,3.87-.09,4.18-.36,4.24-4.11,.07-5.08,.02-10.16,.02-15.24,0-16.29-.04-32.57,.02-48.86,.02-3.61-.39-7.17-.99-10.7-2.07-12.03-10.6-19.49-23-20.54-13.91-1.17-26.12,3.42-37.24,10.94-11.07,7.49-8.91,4.42-9.05,16.86-.12,10.16-.03,20.32-.02,30.48v34.07c0,1.19-.04,2.39,.04,3.58,.2,2.96,.54,3.36,3.51,3.49,2.73,.12,5.47,.01,8.2,.06,4.55,.08,4.79,.34,4.79,4.96,0,.15,0,.3,0,.45-.07,4.07-.36,4.48-4.34,4.49-12.62,.06-25.23,.06-37.84,0-3.44-.02-3.59-.28-3.65-3.59-.01-.6,.01-1.2,.03-1.8,.16-4.22,.36-4.43,4.82-4.51,2.74-.05,5.47,.06,8.2-.05,3.22-.12,3.55-.49,3.76-3.72,.07-1.04,.04-2.09,.04-3.14,0-28.09,0-56.18,0-84.27,0-.6,.01-1.2-.01-1.8-.12-4.14-.44-4.48-4.81-4.58-2.88-.06-5.78,.06-8.66-.03-3.21-.1-3.37-.31-3.42-3.33-.1-6.65-.08-6.67,6.78-6.68,6.08,0,12.16-.05,18.24,.03,3.74,.05,4.15,.5,4.27,4.19,.1,3.13,.01,6.27,.06,9.41,.01,.85-.17,1.93,.9,2.32,1.01,.37,1.68-.45,2.35-1.02,6.24-5.33,13.11-9.7,20.76-12.81,10.04-4.08,20.45-5.6,31.24-3.79,13.37,2.24,21.8,9.88,25.25,22.74,1.16,4.34,1.72,8.79,1.72,13.3-.01,21.67,.02,43.33,.03,65,0,.9-.01,1.8,0,2.69,.04,5.45,.06,5.48,5.59,5.52,2.89,.03,5.78,.05,8.66,.05,2.05,0,3.1,.95,3.09,2.99,0,.45,.03,.9,.04,1.34Z"/>
  <path class="cls-3" d="M1118.52,252.66c-2.57-16.86-12.44-28.3-28.16-32.2-12.21-3.03-24.39-2.73-36.5,.39-13.07,3.37-22.74,11.02-28.95,22.85-2.18,4.14-3.69,8.52-4.77,13.04-3.37,14.18-3.4,28.46-.7,42.71,4.31,22.69,18.22,36.08,41.4,40.1,11.49,2,23.02,1.28,34.52,.1,5.44-.56,10.85-1.46,16.14-2.85,3.89-1.03,4.09-1.38,3.5-5.33-.13-.89-.33-1.76-.53-2.64-.41-1.79-1.52-2.48-3.35-2.03-.74,.19-1.48,.36-2.22,.53-13.43,3.09-27.03,4.18-40.73,2.76-12.17-1.26-22.54-6.02-29.43-16.51-6.07-9.24-7.67-19.69-8.32-30.37-.11-1.77,.73-2.87,2.61-2.99,1.36-.08,2.73-.11,4.1-.11,12.31-.01,24.62,0,36.94,0,6.23,0,12.46,0,18.7,0,6.38,0,12.77,.02,19.15,0,5.1-.02,5.13-.08,6.04-5.15,1.32-7.41,1.71-14.84,.57-22.3Zm-12.52,15.4c-.7,3.67-.93,3.93-4.74,3.95-11.25,.06-22.49,.02-33.74,.02h0c-10.33,.01-20.67,.02-31.01,.01-1.06,0-2.12-.02-3.19-.04-1.63-.04-2.62-.73-2.49-2.46,1.59-21.72,11.99-39.53,37.44-41.49,5.31-.41,10.62-.1,15.85,1.19,10.43,2.59,17.46,8.78,20.7,18.88,2.1,6.52,2.46,13.2,1.17,19.94Z"/>
  <path class="cls-3" d="M1254.17,222.04c1.09,2.33,.83,4.98,.08,7.45-.29,.96-1.33,1.17-2.26,1.21-1.82,.08-3.65,.13-5.47,.1-2.09-.04-3.42,.82-4.15,2.78-.88,2.38-1.92,4.71-2.86,7.08-14.19,35.77-28.36,71.56-42.55,107.33-3.82,9.65-8.32,18.93-15.29,26.85-10.32,11.74-23.49,14.54-38.43,11.92-2-.35-2.94-1.37-2.81-3.36,.05-.74,.05-1.49,.12-2.23,.43-4.07,1.07-4.78,5.2-4.06,13.42,2.35,22.97-3.26,30.22-13.81,4.2-6.1,7.12-12.84,9.91-19.64,.83-2,.38-3.74-.4-5.6-6.78-16-13.51-32.02-20.27-48.02-7.63-18.08-15.4-36.1-22.83-54.25-1.57-3.85-3.73-5.21-7.8-5.09-6.05,.19-6.48-.49-6.06-6.38,.21-3.01,.5-3.38,3.47-3.52,2.57-.12,5.16-.05,7.75-.05,9.88,0,19.76-.03,29.64,.03,1.74,.01,4.03-.7,4.98,1.24,1.13,2.33,.93,4.99,.11,7.44-.46,1.37-1.93,1.27-3.13,1.28-3.8,.03-7.6,0-11.4,.03-5.8,.05-6.04,.34-3.94,5.45,8.85,21.46,17.73,42.91,26.61,64.37,3.38,8.17,6.76,16.33,10.16,24.49,.33,.8,.5,1.74,2.03,2.54,2.22-5.82,4.38-11.38,6.47-16.98,9.32-24.96,18.63-49.93,27.94-74.9,.21-.56,.46-1.11,.64-1.68,.84-2.65,.57-3.14-2.39-3.23-4.25-.12-8.51,0-12.77-.09-3.72-.09-4.07-.5-4.19-4.25-.03-1.04,.03-2.09,.09-3.13,.1-1.59,.99-2.44,2.61-2.52,.91-.04,1.82-.08,2.73-.08,11.1,0,22.19-.03,33.29,.02,1.73,.01,4.04-.71,4.96,1.24Z"/>
  <path class="cls-3" d="M735.11,334.3c-.31,3.38-.76,3.93-4.15,3.94-13.07,.07-26.14,.07-39.21,0-3.46-.02-3.79-.52-3.95-4.03-.03-.6-.03-1.2,0-1.8,.16-3.52,.47-3.89,3.94-4.03,2.43-.1,4.87-.03,7.29-.04q6.17-.02,6.19-6.29c0-22.72,0-45.44,0-68.15,0-14.64,0-29.29,0-43.94v-5.48c-2.2,1.1-2.39,2.54-2.91,3.72-17.95,40.72-35.88,81.45-53.81,122.17-.48,1.1-1,2.18-1.5,3.27-2.2,4.78-2.34,4.74-7.5,4.68-2.54-.03-3.85-1.1-4.8-3.27-3.06-7-6.25-13.95-9.37-20.92-14.21-31.73-28.41-63.46-42.61-95.18-1.72-3.83-3.41-7.66-5.14-11.49-.41-.92-.57-2.04-1.77-2.56-1.17,.89-.71,2.18-.71,3.26-.03,38.11-.03,76.22-.01,114.33,0,5.82,.05,5.82,6.2,5.84,2.74,.01,5.47-.07,8.2,.05,2.92,.12,3.28,.57,3.5,3.51,.04,.6,.03,1.19,.03,1.8-.06,4.19-.36,4.55-4.76,4.57-12.62,.05-25.23,.04-37.85,0-1.58,0-3.73,.52-4.16-1.7-.48-2.46-.91-5.08,.61-7.38,.64-.96,1.91-.79,2.96-.8,3.19-.04,6.39,.04,9.58-.07,3.23-.11,3.54-.49,3.74-3.73,.06-.89,.03-1.79,.03-2.69,0-42.15,0-84.29,0-126.43q0-6.86-7.01-6.87c-2.43-.01-4.87-.04-7.29-.05-1.87-.02-2.77-.99-2.84-2.77-.04-.9-.08-1.79-.06-2.69,.08-4.23,.35-4.53,4.75-4.55,7.91-.04,15.81,.1,23.71-.07,3.06-.07,4.61,1.08,5.82,3.8,11.21,25.19,22.56,50.32,33.87,75.46,8.54,19,17.07,38,25.62,56.99,.3,.68,.6,1.38,1.39,1.74,1.37-.08,1.52-1.28,1.92-2.17,19.11-43.31,38.2-86.64,57.3-129.96,.48-1.1,.99-2.18,1.46-3.28,.72-1.72,1.99-2.51,3.89-2.5,8.82,.03,17.63,.03,26.45,0,2.1,0,3.08,.98,3.05,3-.01,1.04-.02,2.1-.14,3.13-.41,3.43-.74,3.78-4.22,3.89-3.19,.1-6.39-.05-9.58,.08-3.16,.13-3.55,.61-3.74,3.79-.06,1.04-.03,2.1-.03,3.14,0,42,0,83.99,0,125.99q0,6.79,7.04,6.8c2.58,0,5.17,.04,7.75,.06,1.86,.02,2.79,.98,2.88,2.76,.05,1.04,.07,2.1-.02,3.13Z"/>
  <path class="cls-3" d="M997.28,338.29c-11.86,.02-23.71,.03-35.56-.04-1.71,0-3.97,.73-4.79-1.5-.85-2.27-.78-4.73,.04-7.04,.49-1.38,1.91-1.31,3.11-1.33,3.04-.05,6.08,.01,9.11-.06,3.87-.09,4.18-.36,4.24-4.11,.07-5.08,.02-10.16,.02-15.24,0-16.29-.04-32.57,.02-48.86,.02-3.61-.39-7.17-.99-10.7-2.07-12.03-10.6-19.49-23-20.54-13.91-1.17-26.12,3.42-37.24,10.94-11.07,7.49-8.91,4.42-9.05,16.86-.12,10.16-.03,20.32-.02,30.48v34.07c0,1.19-.04,2.39,.04,3.58,.2,2.96,.54,3.36,3.51,3.49,2.73,.12,5.47,.01,8.2,.06,4.55,.08,4.79,.34,4.79,4.96,0,.15,0,.3,0,.45-.07,4.07-.36,4.48-4.34,4.49-12.62,.06-25.23,.06-37.84,0-3.44-.02-3.59-.28-3.65-3.59-.01-.6,.01-1.2,.03-1.8,.16-4.22,.36-4.43,4.82-4.51,2.74-.05,5.47,.06,8.2-.05,3.22-.12,3.55-.49,3.76-3.72,.07-1.04,.04-2.09,.04-3.14,0-28.09,0-56.18,0-84.27,0-.6,.01-1.2-.01-1.8-.12-4.14-.44-4.48-4.81-4.58-2.88-.06-5.78,.06-8.66-.03-3.21-.1-3.37-.31-3.42-3.33-.1-6.65-.08-6.67,6.78-6.68,6.08,0,12.16-.05,18.24,.03,3.74,.05,4.15,.5,4.27,4.19,.1,3.13,.01,6.27,.06,9.41,.01,.85-.17,1.93,.9,2.32,1.01,.37,1.68-.45,2.35-1.02,6.24-5.33,13.11-9.7,20.76-12.81,10.04-4.08,20.45-5.6,31.24-3.79,13.37,2.24,21.8,9.88,25.25,22.74,1.16,4.34,1.72,8.79,1.72,13.3-.01,21.67,.02,43.33,.03,65,0,.9-.01,1.8,0,2.69,.04,5.45,.06,5.48,5.59,5.52,2.89,.03,5.78,.05,8.66,.05,2.05,0,3.1,.95,3.09,2.99,0,.45,.03,.9,.04,1.34,.15,5.24-.14,5.56-5.54,5.56Z"/>
  <path class="cls-3" d="M1254.25,229.49c-.29,.96-1.33,1.17-2.26,1.21-1.82,.08-3.65,.13-5.47,.1-2.09-.04-3.42,.82-4.15,2.78-.88,2.38-1.92,4.71-2.86,7.08-14.19,35.77-28.36,71.56-42.55,107.33-3.82,9.65-8.32,18.93-15.29,26.85-10.32,11.74-23.49,14.54-38.43,11.92-2-.35-2.94-1.37-2.81-3.36,.05-.74,.05-1.49,.12-2.23,.43-4.07,1.07-4.78,5.2-4.06,13.42,2.35,22.97-3.26,30.22-13.81,4.2-6.1,7.12-12.84,9.91-19.64,.83-2,.38-3.74-.4-5.6-6.78-16-13.51-32.02-20.27-48.02-7.63-18.08-15.4-36.1-22.83-54.25-1.57-3.85-3.73-5.21-7.8-5.09-6.05,.19-6.48-.49-6.06-6.38,.21-3.01,.5-3.38,3.47-3.52,2.57-.12,5.16-.05,7.75-.05,9.88,0,19.76-.03,29.64,.03,1.74,.01,4.03-.7,4.98,1.24,1.13,2.33,.93,4.99,.11,7.44-.46,1.37-1.93,1.27-3.13,1.28-3.8,.03-7.6,0-11.4,.03-5.8,.05-6.04,.34-3.94,5.45,8.85,21.46,17.73,42.91,26.61,64.37,3.38,8.17,6.76,16.33,10.16,24.49,.33,.8,.5,1.74,2.03,2.54,2.22-5.82,4.38-11.38,6.47-16.98,9.32-24.96,18.63-49.93,27.94-74.9,.21-.56,.46-1.11,.64-1.68,.84-2.65,.57-3.14-2.39-3.23-4.25-.12-8.51,0-12.77-.09-3.72-.09-4.07-.5-4.19-4.25-.03-1.04,.03-2.09,.09-3.13,.1-1.59,.99-2.44,2.61-2.52,.91-.04,1.82-.08,2.73-.08,11.1,0,22.19-.03,33.29,.02,1.73,.01,4.04-.71,4.96,1.24,1.09,2.33,.83,4.98,.08,7.45Z"/>
  <path class="cls-3" d="M1118.52,252.66c-2.57-16.86-12.44-28.3-28.16-32.2-12.21-3.03-24.39-2.73-36.5,.39-13.07,3.37-22.74,11.02-28.95,22.85-2.18,4.14-3.69,8.52-4.77,13.04-3.37,14.18-3.4,28.46-.7,42.71,4.31,22.69,18.22,36.08,41.4,40.1,11.49,2,23.02,1.28,34.52,.1,5.44-.56,10.85-1.46,16.14-2.85,3.89-1.03,4.09-1.38,3.5-5.33-.13-.89-.33-1.76-.53-2.64-.41-1.79-1.52-2.48-3.35-2.03-.74,.19-1.48,.36-2.22,.53-13.43,3.09-27.03,4.18-40.73,2.76-12.17-1.26-22.54-6.02-29.43-16.51-6.07-9.24-7.67-19.69-8.32-30.37-.11-1.77,.73-2.87,2.61-2.99,1.36-.08,2.73-.11,4.1-.11,12.31-.01,24.62,0,36.94,0,6.23,0,12.46,0,18.7,0,6.38,0,12.77,.02,19.15,0,5.1-.02,5.13-.08,6.04-5.15,1.32-7.41,1.71-14.84,.57-22.3Zm-12.52,15.4c-.7,3.67-.93,3.93-4.74,3.95-11.25,.06-22.49,.02-33.74,.02h0c-10.33,.01-20.67,.02-31.01,.01-1.06,0-2.12-.02-3.19-.04-1.63-.04-2.62-.73-2.49-2.46,1.59-21.72,11.99-39.53,37.44-41.49,5.31-.41,10.62-.1,15.85,1.19,10.43,2.59,17.46,8.78,20.7,18.88,2.1,6.52,2.46,13.2,1.17,19.94Z"/>
  <path class="cls-3" d="M855.96,279.46c0-2.84,.1-5.69-.02-8.52-.35-7.66-1.76-15.13-4.42-22.36-5.78-15.76-16.81-25.69-33.66-28.9-10.58-2.02-21.14-1.82-31.59,1.09-9.92,2.76-17.73,8.33-23.57,16.64-3.96,5.62-6.36,11.9-7.93,18.48-3,12.66-3.25,25.46-1.67,38.32,.73,5.96,2.09,11.78,4.26,17.39,5.74,14.82,16.4,24.17,32.22,27.56,7.62,1.63,15.3,1.81,23.11,1.04,19.66-1.93,33.96-13.32,39.71-31.96,2.9-9.4,3.95-19,3.57-28.78Zm-15.83,25.9c-3.95,11.99-11.39,20.75-24.25,23.89-8.69,2.12-17.49,2.03-26.04-.89-10.73-3.65-17.16-11.48-20.76-21.71-3.73-10.59-4.63-21.57-3.96-32.69,.52-8.53,1.78-16.91,5.4-24.82,5.05-11.04,13.49-17.83,25.69-19.82,6.65-1.08,13.35-.98,19.89,.72,11.46,2.99,18.82,10.47,23.06,21.12,3.65,9.18,4.34,18.86,4.82,28.57-.38,8.68-1.11,17.31-3.85,25.62Z"/>
  <path class="cls-1" d="M1399.52,313.3h0c0-5.09,.06-10.17-.02-15.25-.05-3.41-.28-3.69-3.58-3.73-6.08-.09-12.16-.09-18.24,0-3.49,.05-3.8,.41-3.91,4.01-.1,3.43-.15,6.88-.01,10.31,.1,2.61-1.09,3.85-3.59,4.23-3.3,.5-6.58,1.26-9.89,1.57-7.86,.72-15.71,1.68-23.64,.48-10.22-1.54-18.18-6.38-23.84-14.9-2.86-4.3-4.78-9.01-6.1-13.94-4-14.95-4.41-30.11-2.3-45.37,.92-6.7,2.61-13.21,5.65-19.31,5.66-11.35,14.87-18.13,27.66-19.32,10.62-.99,21.26-.2,31.76,1.86,3.75,.74,4.13,1.17,4.24,5.11,.09,3.58,.09,7.18,0,10.76-.06,2.13,.81,2.92,2.95,2.89,6.08-.07,12.17,.01,18.25-.04,4.54-.03,4.6-.09,4.62-4.52,.04-9.57,.04-19.13,0-28.7-.01-4.3-.09-4.4-4.24-5.6-9.2-2.65-18.55-4.7-28.06-5.94-15.73-2.04-31.46-2.86-47.2,.17-24.08,4.64-39.51,18.59-46.67,41.56-2.83,9.06-3.95,18.36-4.6,27.79-1.1,16.1-.03,31.99,4.41,47.52,3.74,13.08,10.25,24.58,21.59,32.94,10.17,7.49,21.82,10.9,34.28,12.23,8.65,.92,17.27,.65,25.94,.1,14.03-.9,27.68-3.63,41.21-7.24,2.43-.65,3.49-1.83,3.41-4.41-.16-5.08-.05-10.16-.05-15.24Z"/>
  <path class="cls-1" d="M1527.96,316.41c-.06-2.96-.44-3.21-3.59-3.34-2.42-.09-4.85-.06-7.27-.03-2.05,.03-3.15-.82-3.15-2.89,0-1.35-.06-2.71-.06-4.03,0-16.3,0-32.6,.03-48.86,0-4.34-.22-8.68-1.13-12.93-2.55-11.67-9.25-19.57-21.08-23-4.69-1.35-9.47-2.17-14.32-2.55-12.18-.88-24.32-.13-36.4,1.32-6.76,.82-13.5,2.11-20.23,3.15-1.92,.28-3.08,1.01-3.08,3.11,.06,9.12,.06,18.25,.06,27.34,0,2.08,1.01,2.99,3.08,2.96,6.39,0,12.74,0,19.13,.03,2.27,.03,3.43-.85,3.37-3.18-.06-1.48,0-2.96,.03-4.47,.13-3.65,.13-3.74,3.71-4.31,6.95-1.07,13.94-.91,20.89-.31,2.42,.19,4.81,.82,7.02,1.82,4.18,1.89,6.86,5.03,7.46,9.53,.38,2.93,.16,5.95,.19,8.94,.03,1.82-.94,2.77-2.77,2.83-1.38,.03-2.74,.09-4.09,.09-8.05-.03-16.14-.09-24.16,.47-7.49,.57-14.72,2.08-21.58,5.22-10.89,4.97-17.37,13.18-19.19,24.92-.5,3.27-.44,6.58-.28,9.85,.79,15.17,9.85,27.22,24.13,30.77,16.08,4.03,31.05,1.32,44.24-9.03,.94-.72,1.6-1.79,3.81-2.3,0,2.71-.09,5.07,.03,7.43,.13,3.02,.41,3.27,3.56,3.3,7.3,.06,14.6,0,21.9,0,5.47,0,10.92-.03,16.39,0,2.2,.03,3.46-.63,3.43-3.05-.06-6.26,.03-12.55-.06-18.82Zm-48.74-4.34c-7.49,3.78-15.35,5.57-23.72,4.59-9.91-1.2-15.32-8.15-14-17.84,.66-4.81,3.21-8.24,7.77-10.19,3.24-1.38,6.67-2.17,10.16-2.3,6.51-.19,13.03-.16,19.54-.06,3.34,.03,3.56,.35,3.68,3.65,.09,2.99,.03,5.98,.03,8.94,0,1.35-.03,2.74-.03,4.09,0,1.04,0,2.05,.09,3.08,.22,2.89-.88,4.72-3.52,6.04Z"/>
  <path class="cls-1" d="M1898.71,260.45v-.32c-.03-.75-.07-1.49-.09-2.23-.5-16.38-9.43-31.97-29.33-36.99-14.11-3.56-28.31-3.35-42.42-.24-20.77,4.56-33.45,17.27-38.06,37.68-3.48,15.43-3.29,30.86,.95,46.11,3.56,12.83,11,22.85,23.24,29.04,7.52,3.8,15.61,5.62,23.98,6.62,10.33,1.24,20.63,.61,30.92-.19,7.41-.58,14.76-1.82,21.96-3.74,4.38-1.16,4.41-1.24,3.77-5.47-.77-5.17-1.54-10.34-2.33-15.51-.63-4.09-.92-4.39-4.92-3.42-9.04,2.18-18.23,3.24-27.5,3.63-8.41,.36-16.71-.13-24.39-4.13-8.67-4.5-12.96-11.87-14.28-21.12-.47-3.33,.09-3.8,3.67-3.95,1.21-.05,2.43-.02,3.65-.02,21.72,0,43.45,.01,65.17,0,4.87,0,5.04-.05,5.57-4.91,.37-3.4,.32-6.85,.47-10.28v-.32c0-3.41,0-6.82-.01-10.23Zm-78.02,.58c2.94-11.87,11.42-18.61,23.81-18.8,3.32-.05,6.65-.16,9.94,.72,9.65,2.6,15.12,11.6,12.83,21.12-.56,2.33-2.17,2.6-4.09,2.6-6.68,0-13.35,0-20.03,0-6.06,0-12.13,.04-18.2-.01-4.98-.04-5.46-.74-4.25-5.64Z"/>
  <path class="cls-1" d="M1637.83,240.11c0-4.33-.05-8.67,.03-13,.04-2.13-.79-3.37-2.97-3.78-1.94-.36-3.84-.91-5.77-1.32-16.92-3.58-33.97-4.94-51.15-2.12-23.19,3.8-36.91,16.69-41.69,39.28-2.94,13.91-2.73,27.93,.17,41.84,1.79,8.6,5.25,16.52,11.38,23.13,8.05,8.68,18.34,13.02,29.85,15.05,11.47,2.02,23,1.97,34.51,.69,7.7-.86,15.31-2.26,22.83-4.16,1.99-.5,2.88-1.3,2.37-3.42-1.5-6.25-2.96-12.52-4.3-18.8-.45-2.14-1.57-2.65-3.56-2.2-3.11,.71-6.22,1.42-9.36,1.97-9.89,1.72-19.82,3.16-29.89,1.63-7.5-1.13-13.27-4.9-17.25-11.27-2.84-4.54-4.23-9.54-4.96-14.78-1.17-8.4-.92-16.73,1.35-24.9,2.86-10.34,9.12-17.51,20.3-19.42,6.17-1.05,12.43-.76,18.62,.07,3.46,.46,3.53,.75,3.65,4.41,.05,1.49,.1,2.99,.04,4.48-.08,2.28,1.02,3.22,3.3,3.2,6.38-.05,12.77,.06,19.15-.05,3-.05,3.28-.39,3.35-3.54,.1-4.33,.03-8.67,.03-13h-.02Z"/>
  <path class="cls-1" d="M1777.35,313.09c-1.83,0-3.65-.03-5.47-.05-5.5-.04-5.53-.04-5.54-5.47-.02-15.99-.03-31.99,0-47.98,.01-4.19-.24-8.36-.93-12.5-2.69-16.05-13.28-26.55-28.56-28.26-15.02-1.68-28.25,2.39-39.82,11.89-1.6,1.31-2.93,3.01-5.13,3.82-1.29-1.7-1-3.52-1-5.25-.03-10.02,.01-20.03-.03-30.05-.03-6.57-.15-13.14-.23-19.71,.27-5.57,.27-5.6-5.15-5.62-6.22-.03-12.43-.07-18.64,0-6.66,.09-13.33-.35-19.99,.27-1.06,1.3-.78,2.84-.79,4.31-.04,4.63,0,9.27-.03,13.9-.02,7.66-.03,6.81,6.91,6.85,7.01,.04,6.69-.38,6.69,6.62,0,33.63,0,67.26,0,100.89,0,.9,.03,1.8-.02,2.69-.19,3.19-.44,3.45-3.85,3.58-1.97,.08-3.96-.04-5.93,.04-3.33,.12-3.71,.39-3.76,3.61-.09,5.98-.1,11.96,0,17.93,.06,3.21,.47,3.61,3.77,3.62,16.57,.05,33.14,.05,49.71,0,3.1-.01,3.44-.35,3.52-3.36,.11-4.93,.04-9.87,.05-14.8,.02-8.13-.03-6.99-7.16-7.05-4.75-.04-4.91-.07-4.93-4.74-.1-16.44-.1-32.88-.13-49.32,0-1.19,.2-2.38,.22-3.58,.04-1.79,.78-3.1,2.37-4.05,5.77-3.43,11.82-6.21,18.56-7.12,14.55-1.97,22.9,4.97,23.07,19.37,.17,14.95,.04,29.9,.03,44.84,0,.6-.05,1.19-.05,1.8,.02,1.82-.85,2.76-2.75,2.77-1.98,0-3.96,.09-5.93,.05-2.03-.04-3.14,.71-3.14,2.84,.03,6.58,.02,13.15,.02,19.73,0,1.9,1.02,2.68,2.85,2.65,.91-.02,1.83,0,2.74,0,14.9,0,29.79,0,44.69,0,1.22,0,2.43-.05,3.65-.02,1.87,.04,2.85-.79,2.85-2.66,0-6.57,0-13.15,0-19.72,0-1.81-.86-2.78-2.75-2.78Z"/>
</svg>